<svg width="30" height="30" viewBox="0 0 30 30" fill="none" xmlns="http://www.w3.org/2000/svg">
<g id="agriculture_svgrepo.com">
<path id="Vector" d="M17.5393 3.20613C17.802 3.15122 18.0612 3.08063 18.3155 2.99473C18.008 2.67654 17.6619 2.39812 17.2852 2.16598C17.3808 2.49223 17.4652 2.84098 17.5393 3.20613ZM13.8254 2.0652C13.4194 2.28598 13.0285 2.58598 12.6577 2.95816C12.9146 3.05145 13.2104 3.13629 13.5418 3.20566C13.6178 2.82114 13.7124 2.44054 13.8254 2.0652ZM13.9721 9.37723C14.4427 9.45082 14.9682 9.49582 15.541 9.49582C16.1138 9.49582 16.6388 9.45082 17.1094 9.37723C17.1087 8.64845 17.0904 7.9198 17.0546 7.19191C16.0489 7.31164 15.0326 7.31164 14.0269 7.19191C13.9906 7.91979 13.9723 8.64845 13.9721 9.37723ZM11.0818 5.19316C11.4141 5.53113 12.1364 5.88035 13.1616 6.10395C13.2119 5.44411 13.2851 4.78621 13.381 4.13145C12.8766 4.02926 12.4111 3.8891 12.0085 3.71238C11.6587 4.17917 11.3487 4.67451 11.0818 5.19316ZM16.7714 13.1741C16.8563 12.8811 16.9411 12.5868 17.0297 12.3069C17.0654 11.6844 17.0902 11.0244 17.1014 10.3255C16.5842 10.3968 16.0627 10.4326 15.5405 10.4329C15.0127 10.4329 14.4849 10.3954 13.9791 10.3255C13.9946 11.3033 14.0368 12.2057 14.0986 13.0339L14.1319 13.1497C14.5613 13.2093 15.031 13.2454 15.54 13.2454C15.9516 13.2463 16.3628 13.2225 16.7714 13.1741ZM15.5302 19.2669C15.7451 17.5397 16.0714 15.8281 16.5071 14.143C16.1883 14.1693 15.8644 14.1833 15.5405 14.1833C15.1594 14.1833 14.7788 14.1627 14.4057 14.1261C14.8022 15.635 15.1304 17.2954 15.3671 19.1108C15.4247 19.1872 15.4796 19.2435 15.5302 19.2669ZM18.9661 3.7602C18.5888 3.91488 18.1599 4.03863 17.7 4.13145C17.7959 4.78621 17.8691 5.44411 17.9194 6.10395C18.8546 5.90004 19.5375 5.5916 19.9027 5.2827C19.6338 4.7498 19.3205 4.2405 18.9661 3.7602ZM14.0855 6.25863C14.5332 6.31254 15.0193 6.34395 15.541 6.34395C16.0272 6.34458 16.5131 6.31609 16.996 6.25863C16.9463 5.59407 16.8708 4.93169 16.7696 4.27301C16.3669 4.31566 15.9539 4.33957 15.541 4.33957C15.128 4.33957 14.715 4.31613 14.3119 4.27301C14.2107 4.93169 14.1352 5.59407 14.0855 6.25863ZM16.6041 3.34723C16.4494 2.61363 16.2769 2.07551 16.1114 1.69207C15.9002 1.6485 15.685 1.62635 15.4693 1.62598C15.3043 1.62598 15.1411 1.64285 14.9794 1.66816C14.8111 2.05254 14.6344 2.5991 14.4764 3.34723C15.1838 3.42006 15.8968 3.42006 16.6041 3.34723ZM13.0346 9.17238C13.0399 8.46183 13.0614 7.75148 13.0993 7.04191C12.4238 6.9041 11.8036 6.70676 11.2936 6.45363C11.782 7.29155 12.2256 8.15479 12.6225 9.03973C12.7491 9.0866 12.8883 9.13066 13.0346 9.17238ZM18.2339 9.11613C18.6121 8.2585 19.0348 7.42126 19.5005 6.60785L19.5202 6.57504C19.066 6.77051 18.5438 6.92754 17.9813 7.04238C18.0263 7.87535 18.0422 8.62113 18.046 9.17285C18.1107 9.1541 18.1735 9.13535 18.2339 9.11613ZM10.6186 6.17988C10.546 6.06223 10.4733 5.94457 10.4007 5.83113C10.2821 5.64669 10.161 5.46386 10.0374 5.2827C8.9241 3.6552 7.8577 2.54848 7.11426 1.88098C8.28285 4.5041 8.82238 9.74988 9.06379 13.3433C9.20113 15.3899 9.24191 16.9025 9.2466 17.0849C9.4327 19.9804 9.92676 22.1155 10.5596 23.6957C10.733 24.1283 10.9158 24.5202 11.1066 24.8727C11.1169 24.8919 11.1268 24.9125 11.1371 24.9313C11.1436 24.9439 11.1507 24.9557 11.1577 24.9678C12.6408 27.6425 14.5219 28.0785 15.2143 28.1455C15.1285 26.1988 15.1369 24.3754 15.2279 22.6785C15.1791 21.7944 15.1056 20.9119 15.0075 20.0319C14.7624 17.803 14.3808 15.8183 13.9158 14.0661C13.8271 13.7314 13.7332 13.3981 13.6341 13.0663C13.4617 12.48 13.2732 11.8985 13.0688 11.3225C12.9101 10.8827 12.7412 10.4466 12.5621 10.0147C12.3867 9.58809 12.2011 9.16578 12.0052 8.74816C11.7076 8.10983 11.3842 7.48384 11.0358 6.87176C10.8966 6.63035 10.7574 6.40488 10.6186 6.17988ZM16.7879 14.9661C16.5479 15.9694 16.3476 16.9818 16.1874 18.0008C16.0751 18.7091 15.9805 19.4201 15.9038 20.1332C15.8147 20.9591 15.7449 21.8169 15.6971 22.7075C15.6016 24.5202 15.5955 26.3365 15.6788 28.1497L15.7116 28.1464C16.8291 28.0382 21.0441 26.9704 21.6793 17.076C21.6835 16.8941 21.7257 15.3341 21.8686 13.2341C22.1129 9.65332 22.6514 4.49848 23.8041 1.89691C23.1146 2.5241 22.1494 3.53051 21.1233 4.98551C20.8693 5.34599 20.6256 5.71364 20.3925 6.08801C20.3705 6.12363 20.348 6.15738 20.326 6.19395C19.7996 7.05104 19.3226 7.93748 18.8972 8.84895C18.7163 9.2352 18.5396 9.64113 18.3657 10.0611C17.8262 11.3728 17.3729 12.7183 17.0086 14.0891C16.9322 14.375 16.8591 14.6689 16.7879 14.9661Z" fill="#1768AC"/>
</g>
</svg>
