<svg width="60" height="60" viewBox="0 0 60 60" fill="none" xmlns="http://www.w3.org/2000/svg">
<g id="balcony_svgrepo.com" clip-path="url(#clip0_347_10858)">
<g id="Group">
<g id="Group_2">
<path id="Vector" d="M57.5675 37.2973H54.3243H47.027V20.2703C47.027 10.8816 39.3888 3.24329 30 3.24329C20.6112 3.24329 12.973 10.8816 12.973 20.2703V37.2973H5.67574H2.43246C1.08914 37.2973 0 38.3864 0 39.7297C0 41.0731 1.08914 42.1622 2.43246 42.1622H3.24328V54.3244C3.24328 55.6677 4.33242 56.7568 5.67574 56.7568H54.3244C55.6677 56.7568 56.7568 55.6677 56.7568 54.3244V42.1622H57.5677C58.911 42.1622 60.0001 41.0731 60.0001 39.7297C60.0001 38.3864 58.911 37.2973 57.5675 37.2973ZM12.973 51.8919H8.10809V42.1622H12.9729L12.973 51.8919ZM27.5675 8.35278V20.2703H17.8378C17.8378 14.397 22.0229 9.48293 27.5675 8.35278ZM17.8378 25.1351H27.5675V37.2973H17.8378V25.1351ZM22.7027 51.8919H17.8379V42.1622H22.7027V51.8919ZM32.4325 51.8919H27.5675V42.1622H32.4325V51.8919ZM42.1622 51.8919H37.2973V42.1622H42.1622V51.8919ZM42.1622 37.2973H32.4325V25.1351H42.1622V37.2973ZM32.4325 20.2703V8.35278C37.9771 9.48293 42.1622 14.3968 42.1622 20.2703H32.4325ZM51.8919 51.8919H47.027V42.1622H51.8919V51.8919Z" fill="#1768AC"/>
</g>
</g>
</g>
<defs>
<clipPath id="clip0_347_10858">
<rect width="60" height="60" fill="white"/>
</clipPath>
</defs>
</svg>
