<svg width="20" height="20" viewBox="0 0 20 20" fill="none" xmlns="http://www.w3.org/2000/svg">
<g id="bed-single_svgrepo.com" clip-path="url(#clip0_520_1280)">
<g id="Group">
<path id="Vector" d="M19.375 12.5C19.375 11.8914 19.375 1.46496 19.375 0.9375C19.375 0.592344 19.0952 0.3125 18.75 0.3125C18.4048 0.3125 18.125 0.592344 18.125 0.9375V1.5625H1.875V0.9375C1.875 0.592344 1.59516 0.3125 1.25 0.3125C0.904844 0.3125 0.625 0.592344 0.625 0.9375V12.5C0.279844 12.5 0 12.7798 0 13.125V19.0625C0 19.4077 0.279844 19.6875 0.625 19.6875H2.8125C3.04926 19.6875 3.26566 19.5537 3.37152 19.342L4.13629 17.8125H15.8638L16.6285 19.342C16.7344 19.5537 16.9508 19.6875 17.1875 19.6875H19.375C19.7202 19.6875 20 19.4077 20 19.0625V13.125C20 12.7798 19.7202 12.5 19.375 12.5ZM18.125 8.91277C17.6778 8.61281 17.1403 8.4375 16.5625 8.4375H14.375V7.1875C14.375 5.80898 13.2535 4.6875 11.875 4.6875H8.125C6.74648 4.6875 5.625 5.80898 5.625 7.1875V8.4375H3.4375C2.85973 8.4375 2.32223 8.61281 1.875 8.91277V2.8125H18.125V8.91277ZM13.125 8.4375H6.875V7.1875C6.875 6.49824 7.43574 5.9375 8.125 5.9375H11.875C12.5643 5.9375 13.125 6.49824 13.125 7.1875V8.4375ZM1.875 11.25C1.875 10.3884 2.57594 9.6875 3.4375 9.6875H16.5625C17.4241 9.6875 18.125 10.3884 18.125 11.25V12.5H1.875V11.25ZM18.75 18.4375H17.5738L16.809 16.908C16.7032 16.6963 16.4868 16.5625 16.25 16.5625H3.75C3.51324 16.5625 3.29684 16.6963 3.19098 16.908L2.42621 18.4375H1.25V13.75H18.75V18.4375Z" fill="#1768AC"/>
</g>
</g>
<defs>
<clipPath id="clip0_520_1280">
<rect width="20" height="20" fill="white"/>
</clipPath>
</defs>
</svg>
