<svg width="30" height="30" viewBox="0 0 30 30" fill="none" xmlns="http://www.w3.org/2000/svg">
<g id="auction-bid_svgrepo.com" clip-path="url(#clip0_347_10768)">
<g id="Group">
<g id="Group_2">
<path id="Vector" d="M27.8639 11.9266C26.9436 11.0063 25.5918 10.8408 24.5227 11.3526L17.3684 4.1982C17.8879 3.10754 17.6974 1.76018 16.7957 0.858418C15.6515 -0.285977 13.7894 -0.285977 12.6451 0.858418L8.49441 5.00902C7.35013 6.1533 7.35013 8.01529 8.49441 9.15957C9.39388 10.0592 10.7391 10.254 11.8342 9.73232L13.3368 11.235L0.873235 23.6986C-0.273738 24.8455 -0.273914 26.702 0.873235 27.8491C2.02021 28.9961 3.87669 28.9963 5.02384 27.8491L17.4874 15.3856L18.9899 16.888C18.4703 17.9787 18.6608 19.326 19.5626 20.2278C20.1169 20.7821 20.8539 21.0875 21.6379 21.0875C22.4219 21.0875 23.1588 20.7822 23.7132 20.2278L27.8638 16.0772C29.0082 14.9329 29.0082 13.071 27.8639 11.9266ZM11.2616 7.77606C10.8801 8.15744 10.2594 8.15732 9.87798 7.77606C9.49659 7.39455 9.49659 6.77398 9.87798 6.39254L14.0286 2.24193C14.41 1.86055 15.0305 1.86037 15.4121 2.24193C15.7935 2.62338 15.7935 3.244 15.4122 3.62545L11.2616 7.77606ZM3.64032 26.4655C3.25794 26.8478 2.63919 26.8479 2.25681 26.4655C1.87448 26.0831 1.87443 25.4643 2.25681 25.082L14.7204 12.6184L16.1039 14.0019L3.64032 26.4655ZM13.3368 8.46781L14.0285 7.776L16.1039 5.70066L23.0216 12.6184L20.2545 15.3855L13.3368 8.46781ZM26.4804 14.6938L22.3298 18.8444C21.9474 19.2267 21.3287 19.2267 20.9463 18.8444C20.5648 18.4629 20.5648 17.8422 20.9463 17.4608L25.0969 13.3102C25.4792 12.9278 26.0981 12.9279 26.4804 13.3102C26.8628 13.6925 26.8628 14.3113 26.4804 14.6938Z" fill="white"/>
</g>
</g>
<g id="Group_3">
<g id="Group_4">
<path id="Vector_2" d="M27.0521 24.1302H19.2257C17.6074 24.1302 16.2908 25.4468 16.2908 27.0651V29.0217C16.2908 29.562 16.7288 30 17.2691 30H29.0087C29.549 30 29.987 29.5619 29.987 29.0217V27.0651C29.9871 25.4468 28.6705 24.1302 27.0521 24.1302ZM28.0304 28.0434H18.2474V27.0651C18.2474 26.5257 18.6863 26.0868 19.2257 26.0868H27.0521C27.5915 26.0868 28.0304 26.5257 28.0304 27.0651V28.0434H28.0304Z" fill="white"/>
</g>
</g>
</g>
<defs>
<clipPath id="clip0_347_10768">
<rect width="30" height="30" fill="white"/>
</clipPath>
</defs>
</svg>
