<svg width="30" height="30" viewBox="0 0 30 30" fill="none" xmlns="http://www.w3.org/2000/svg">
<g id="auction-bid_svgrepo.com" clip-path="url(#clip0_164_1635)">
<g id="Group">
<g id="Group_2">
<path id="Vector" d="M27.8636 11.9266C26.9434 11.0063 25.5916 10.8408 24.5225 11.3526L17.3682 4.1982C17.8877 3.10754 17.6972 1.76018 16.7954 0.858418C15.6512 -0.285977 13.7892 -0.285977 12.6448 0.858418L8.49416 5.00902C7.34989 6.1533 7.34989 8.01529 8.49416 9.15957C9.39364 10.0592 10.7389 10.254 11.8339 9.73232L13.3366 11.235L0.872991 23.6986C-0.273982 24.8455 -0.274158 26.702 0.872991 27.8491C2.01996 28.9961 3.87645 28.9963 5.0236 27.8491L17.4872 15.3856L18.9896 16.888C18.47 17.9787 18.6605 19.326 19.5623 20.2278C20.1166 20.7821 20.8537 21.0875 21.6377 21.0875C22.4217 21.0875 23.1586 20.7822 23.713 20.2278L27.8636 16.0772C29.0079 14.9329 29.0079 13.071 27.8636 11.9266ZM11.2613 7.77606C10.8799 8.15744 10.2592 8.15732 9.87774 7.77606C9.49635 7.39455 9.49635 6.77398 9.87774 6.39254L14.0283 2.24193C14.4097 1.86055 15.0303 1.86037 15.4119 2.24193C15.7933 2.62338 15.7933 3.244 15.4119 3.62545L11.2613 7.77606ZM3.64008 26.4655C3.2577 26.8478 2.63895 26.8479 2.25657 26.4655C1.87424 26.0831 1.87418 25.4643 2.25657 25.082L14.7202 12.6184L16.1037 14.0019L3.64008 26.4655ZM13.3366 8.46781L14.0283 7.776L16.1036 5.70066L23.0213 12.6184L20.2543 15.3855L13.3366 8.46781ZM26.4802 14.6938L22.3296 18.8444C21.9472 19.2267 21.3284 19.2267 20.946 18.8444C20.5646 18.4629 20.5646 17.8422 20.946 17.4608L25.0967 13.3102C25.479 12.9278 26.0978 12.9279 26.4802 13.3102C26.8625 13.6925 26.8625 14.3113 26.4802 14.6938Z" fill="#2541B2"/>
</g>
</g>
<g id="Group_3">
<g id="Group_4">
<path id="Vector_2" d="M27.0523 24.1301H19.2259C17.6076 24.1301 16.291 25.4467 16.291 27.065V29.0217C16.291 29.5619 16.7291 29.9999 17.2693 29.9999H29.009C29.5493 29.9999 29.9872 29.5619 29.9872 29.0217V27.065C29.9873 25.4467 28.6707 24.1301 27.0523 24.1301ZM28.0307 28.0433H18.2476V27.065C18.2476 26.5256 18.6865 26.0867 19.2259 26.0867H27.0523C27.5918 26.0867 28.0306 26.5256 28.0306 27.065V28.0433H28.0307Z" fill="#2541B2"/>
</g>
</g>
</g>
<defs>
<clipPath id="clip0_164_1635">
<rect width="30" height="30" fill="white"/>
</clipPath>
</defs>
</svg>
