<svg width="30" height="30" viewBox="0 0 30 30" fill="none" xmlns="http://www.w3.org/2000/svg">
<g id="building_svgrepo.com">
<path id="Vector" d="M22.5 26.25V27.5C23.1904 27.5 23.75 26.9404 23.75 26.25H22.5ZM7.50001 26.25H6.25001C6.25001 26.9404 6.80966 27.5 7.50001 27.5V26.25ZM11.25 7.50001C10.5597 7.50001 10 8.05966 10 8.75001C10 9.44036 10.5597 10 11.25 10V7.50001ZM12.5 10C13.1904 10 13.75 9.44036 13.75 8.75001C13.75 8.05966 13.1904 7.50001 12.5 7.50001V10ZM11.25 11.25C10.5597 11.25 10 11.8097 10 12.5C10 13.1904 10.5597 13.75 11.25 13.75V11.25ZM12.5 13.75C13.1904 13.75 13.75 13.1904 13.75 12.5C13.75 11.8097 13.1904 11.25 12.5 11.25V13.75ZM17.5 11.25C16.8096 11.25 16.25 11.8097 16.25 12.5C16.25 13.1904 16.8096 13.75 17.5 13.75V11.25ZM18.75 13.75C19.4404 13.75 20 13.1904 20 12.5C20 11.8097 19.4404 11.25 18.75 11.25V13.75ZM17.5 15C16.8096 15 16.25 15.5596 16.25 16.25C16.25 16.9404 16.8096 17.5 17.5 17.5V15ZM18.75 17.5C19.4404 17.5 20 16.9404 20 16.25C20 15.5596 19.4404 15 18.75 15V17.5ZM11.25 15C10.5597 15 10 15.5596 10 16.25C10 16.9404 10.5597 17.5 11.25 17.5V15ZM12.5 17.5C13.1904 17.5 13.75 16.9404 13.75 16.25C13.75 15.5596 13.1904 15 12.5 15V17.5ZM17.5 7.50001C16.8096 7.50001 16.25 8.05966 16.25 8.75001C16.25 9.44036 16.8096 10 17.5 10V7.50001ZM18.75 10C19.4404 10 20 9.44036 20 8.75001C20 8.05966 19.4404 7.50001 18.75 7.50001V10ZM9.50001 5.00001H20.5V2.50001H9.50001V5.00001ZM21.25 5.75001V26.25H23.75V5.75001H21.25ZM22.5 25H7.50001V27.5H22.5V25ZM8.75001 26.25V5.75001H6.25001V26.25H8.75001ZM20.5 5.00001C20.8706 5.00001 21.0735 5.00098 21.2193 5.01288C21.3504 5.02359 21.3219 5.03663 21.25 5.00001L22.385 2.77249C22.0458 2.59962 21.7085 2.54453 21.4228 2.52119C21.1516 2.49903 20.8294 2.50001 20.5 2.50001V5.00001ZM23.75 5.75001C23.75 5.42059 23.751 5.09837 23.7289 4.82722C23.7055 4.54148 23.6504 4.20431 23.4775 3.86503L21.25 5.00001C21.2134 4.92812 21.2264 4.89966 21.2371 5.03079C21.249 5.17653 21.25 5.37934 21.25 5.75001H23.75ZM21.25 5.00001L23.4775 3.86503C23.2379 3.39463 22.8554 3.01217 22.385 2.77249L21.25 5.00001ZM9.50001 2.50001C9.17059 2.50001 8.84837 2.49903 8.57722 2.52119C8.29148 2.54453 7.95431 2.59962 7.61503 2.77249L8.75001 5.00001C8.67812 5.03663 8.64966 5.02359 8.78079 5.01288C8.92653 5.00098 9.12934 5.00001 9.50001 5.00001V2.50001ZM8.75001 5.75001C8.75001 5.37934 8.75098 5.17653 8.76288 5.03079C8.77359 4.89966 8.78663 4.92812 8.75001 5.00001L6.52249 3.86503C6.34962 4.20431 6.29453 4.54148 6.27119 4.82722C6.24903 5.09837 6.25001 5.42059 6.25001 5.75001H8.75001ZM7.61503 2.77249C7.14462 3.01217 6.76217 3.39462 6.52249 3.86503L8.75001 5.00001L7.61503 2.77249ZM11.25 10H12.5V7.50001H11.25V10ZM11.25 13.75H12.5V11.25H11.25V13.75ZM17.5 13.75H18.75V11.25H17.5V13.75ZM17.5 17.5H18.75V15H17.5V17.5ZM11.25 17.5H12.5V15H11.25V17.5ZM17.5 10H18.75V7.50001H17.5V10ZM16.25 22.5V26.25H18.75V22.5H16.25ZM13.75 26.25V22.5H11.25V26.25H13.75ZM15 21.25C15.6904 21.25 16.25 21.8096 16.25 22.5H18.75C18.75 20.4289 17.0711 18.75 15 18.75V21.25ZM15 18.75C12.9289 18.75 11.25 20.4289 11.25 22.5H13.75C13.75 21.8096 14.3096 21.25 15 21.25V18.75Z" fill="#1768AC"/>
</g>
</svg>
