<svg width="30" height="31" viewBox="0 0 30 31" fill="none" xmlns="http://www.w3.org/2000/svg">
<g id="cross_svgrepo.com">
<path id="Vector" d="M8.74356 8.95767C8.2554 9.44583 8.2554 10.2373 8.74356 10.7254L13.225 15.2068L8.74356 19.6883C8.2554 20.1765 8.2554 20.968 8.74356 21.4561C9.23171 21.9442 10.0232 21.9442 10.5113 21.4561L14.9927 16.9746L19.4742 21.4561C19.9624 21.9442 20.7539 21.9442 21.242 21.4561C21.7301 20.968 21.7301 20.1765 21.242 19.6883L16.7605 15.2068L21.242 10.7255C21.7301 10.2373 21.7301 9.44584 21.242 8.95769C20.7537 8.46953 19.9624 8.46953 19.4742 8.95769L14.9927 13.4391L10.5113 8.95767C10.0232 8.46952 9.23171 8.46952 8.74356 8.95767Z" fill="#9E9E9E"/>
</g>
</svg>
