<svg width="30" height="30" viewBox="0 0 30 30" fill="none" xmlns="http://www.w3.org/2000/svg">
<g id="commercial-buldings_svgrepo.com" clip-path="url(#clip0_578_9818)">
<g id="Group">
<g id="Group_2">
<path id="Vector" d="M29.1067 27.5642H28.2134V3.921C28.2134 2.11716 26.8776 0.64917 25.2357 0.64917H17.0471C15.4053 0.64917 14.0694 2.11716 14.0694 3.921V8.263C13.83 8.20703 13.5835 8.16769 13.325 8.16769H5.13648C3.49463 8.16769 2.1588 9.37127 2.1588 10.8517V27.5642H0.89331C0.400169 27.5642 0 27.9645 0 28.4575C0 28.9506 0.400169 29.3509 0.89331 29.3509H29.1067C29.5998 29.3509 30 28.9507 30 28.4575C30 27.9644 29.5998 27.5642 29.1067 27.5642ZM4.54091 10.8518C4.54091 10.7642 4.74994 10.5499 5.13648 10.5499H13.3251C13.7115 10.5499 13.9206 10.7637 13.9206 10.8518V27.5642H4.54091V10.8518ZM16.4516 3.921C16.4516 3.39636 16.7655 3.03128 17.0472 3.03128H25.2358C25.5175 3.03128 25.8313 3.39636 25.8313 3.921V27.5643H16.4516V3.921Z" fill="#1768AC"/>
<path id="Vector_2" d="M19.6945 4.03833H18.2217C17.7458 4.03833 17.3594 4.42421 17.3594 4.90065V6.37341C17.3594 6.84926 17.7453 7.23573 18.2217 7.23573H19.6945C20.1703 7.23573 20.5568 6.84984 20.5568 6.37341V4.90065C20.5568 4.42421 20.1703 4.03833 19.6945 4.03833Z" fill="#1768AC"/>
<path id="Vector_3" d="M19.6945 8.20703H18.2217C17.7458 8.20703 17.3594 8.59291 17.3594 9.06935V10.5421C17.3594 11.018 17.7453 11.4044 18.2217 11.4044H19.6945C20.1703 11.4044 20.5568 11.0185 20.5568 10.5421V9.06935C20.5568 8.59291 20.1703 8.20703 19.6945 8.20703Z" fill="#1768AC"/>
<path id="Vector_4" d="M19.6945 12.3757H18.2217C17.7458 12.3757 17.3594 12.7616 17.3594 13.2381V14.7108C17.3594 15.1867 17.7453 15.5731 18.2217 15.5731H19.6945C20.1703 15.5731 20.5568 15.1872 20.5568 14.7108V13.2381C20.5568 12.7616 20.1703 12.3757 19.6945 12.3757Z" fill="#1768AC"/>
<path id="Vector_5" d="M24.0612 4.03833H22.5884C22.1125 4.03833 21.7261 4.42421 21.7261 4.90065V6.37341C21.7261 6.84926 22.112 7.23573 22.5884 7.23573H24.0612C24.537 7.23573 24.9235 6.84984 24.9235 6.37341V4.90065C24.9235 4.42421 24.5376 4.03833 24.0612 4.03833Z" fill="#1768AC"/>
<path id="Vector_6" d="M24.0612 8.20703H22.5884C22.1125 8.20703 21.7261 8.59291 21.7261 9.06935V10.5421C21.7261 11.018 22.112 11.4044 22.5884 11.4044H24.0612C24.537 11.4044 24.9235 11.0185 24.9235 10.5421V9.06935C24.9235 8.59291 24.5376 8.20703 24.0612 8.20703Z" fill="#1768AC"/>
<path id="Vector_7" d="M24.0612 12.3757H22.5884C22.1125 12.3757 21.7261 12.7616 21.7261 13.2381V14.7108C21.7261 15.1867 22.112 15.5731 22.5884 15.5731H24.0612C24.537 15.5731 24.9235 15.1872 24.9235 14.7108V13.2381C24.9235 12.7616 24.5376 12.3757 24.0612 12.3757Z" fill="#1768AC"/>
<path id="Vector_8" d="M19.6945 16.5444H18.2217C17.7458 16.5444 17.3594 16.9303 17.3594 17.4068V18.8795C17.3594 19.3554 17.7453 19.7418 18.2217 19.7418H19.6945C20.1703 19.7418 20.5568 19.3559 20.5568 18.8795V17.4068C20.5568 16.9303 20.1703 16.5444 19.6945 16.5444Z" fill="#1768AC"/>
<path id="Vector_9" d="M19.6945 20.7131H18.2217C17.7458 20.7131 17.3594 21.099 17.3594 21.5755V23.0482C17.3594 23.5241 17.7453 23.9105 18.2217 23.9105H19.6945C20.1703 23.9105 20.5568 23.5246 20.5568 23.0482V21.5755C20.5568 21.099 20.1703 20.7131 19.6945 20.7131Z" fill="#1768AC"/>
<path id="Vector_10" d="M24.0612 16.5444H22.5884C22.1125 16.5444 21.7261 16.9303 21.7261 17.4068V18.8795C21.7261 19.3554 22.112 19.7418 22.5884 19.7418H24.0612C24.537 19.7418 24.9235 19.3559 24.9235 18.8795V17.4068C24.9235 16.9303 24.5376 16.5444 24.0612 16.5444Z" fill="#1768AC"/>
<path id="Vector_11" d="M24.0612 20.7131H22.5884C22.1125 20.7131 21.7261 21.099 21.7261 21.5755V23.0482C21.7261 23.5241 22.112 23.9105 22.5884 23.9105H24.0612C24.537 23.9105 24.9235 23.5246 24.9235 23.0482V21.5755C24.9235 21.099 24.5376 20.7131 24.0612 20.7131Z" fill="#1768AC"/>
<path id="Vector_12" d="M7.78373 12.3757H6.31105C5.8352 12.3757 5.44873 12.7616 5.44873 13.2381V14.7108C5.44873 15.1867 5.83461 15.5731 6.31105 15.5731H7.78381C8.25966 15.5731 8.64613 15.1872 8.64613 14.7108V13.2381C8.64613 12.7616 8.25958 12.3757 7.78373 12.3757Z" fill="#1768AC"/>
<path id="Vector_13" d="M12.1505 12.3757H10.6777C10.2019 12.3757 9.81543 12.7616 9.81543 13.2381V14.7108C9.81543 15.1867 10.2013 15.5731 10.6777 15.5731H12.1505C12.6264 15.5731 13.0128 15.1872 13.0128 14.7108V13.2381C13.0128 12.7616 12.6269 12.3757 12.1505 12.3757Z" fill="#1768AC"/>
<path id="Vector_14" d="M7.78373 16.5444H6.31105C5.8352 16.5444 5.44873 16.9303 5.44873 17.4068V18.8795C5.44873 19.3554 5.83461 19.7418 6.31105 19.7418H7.78381C8.25966 19.7418 8.64613 19.3559 8.64613 18.8795V17.4068C8.64613 16.9303 8.25958 16.5444 7.78373 16.5444Z" fill="#1768AC"/>
<path id="Vector_15" d="M7.78373 20.7131H6.31105C5.8352 20.7131 5.44873 21.099 5.44873 21.5755V23.0482C5.44873 23.5241 5.83461 23.9105 6.31105 23.9105H7.78381C8.25966 23.9105 8.64613 23.5246 8.64613 23.0482V21.5755C8.64613 21.099 8.25958 20.7131 7.78373 20.7131Z" fill="#1768AC"/>
<path id="Vector_16" d="M12.1505 16.5444H10.6777C10.2019 16.5444 9.81543 16.9303 9.81543 17.4068V18.8795C9.81543 19.3554 10.2013 19.7418 10.6777 19.7418H12.1505C12.6264 19.7418 13.0128 19.3559 13.0128 18.8795V17.4068C13.0128 16.9303 12.6269 16.5444 12.1505 16.5444Z" fill="#1768AC"/>
<path id="Vector_17" d="M12.1505 20.7131H10.6777C10.2019 20.7131 9.81543 21.099 9.81543 21.5755V23.0482C9.81543 23.5241 10.2013 23.9105 10.6777 23.9105H12.1505C12.6264 23.9105 13.0128 23.5246 13.0128 23.0482V21.5755C13.0128 21.099 12.6269 20.7131 12.1505 20.7131Z" fill="#1768AC"/>
</g>
</g>
</g>
<defs>
<clipPath id="clip0_578_9818">
<rect width="30" height="30" fill="white"/>
</clipPath>
</defs>
</svg>
