<svg width="40" height="40" viewBox="0 0 40 40" fill="none" xmlns="http://www.w3.org/2000/svg">
<g id="cross_svgrepo.com">
<path id="Vector" d="M11.6581 11.6772C11.0072 12.3281 11.0072 13.3834 11.6581 14.0343L17.6333 20.0095L11.6581 25.9848C11.0072 26.6356 11.0072 27.691 11.6581 28.3418C12.309 28.9926 13.3642 28.9926 14.0151 28.3418L19.9903 22.3665L25.9657 28.3418C26.6165 28.9926 27.6718 28.9926 28.3227 28.3418C28.9735 27.691 28.9735 26.6356 28.3227 25.9848L22.3473 20.0095L28.3227 14.0343C28.9735 13.3834 28.9735 12.3281 28.3227 11.6773C27.6717 11.0264 26.6165 11.0264 25.9657 11.6773L19.9903 17.6525L14.0151 11.6772C13.3642 11.0264 12.309 11.0264 11.6581 11.6772Z" fill="white"/>
</g>
</svg>
