<svg width="30" height="31" viewBox="0 0 30 31" fill="none" xmlns="http://www.w3.org/2000/svg">
<g id="facebook_svgrepo.com">
<path id="Vector" fill-rule="evenodd" clip-rule="evenodd" d="M25 1.75C27.0711 1.75 28.75 3.42894 28.75 5.5V25.5C28.75 27.5711 27.0711 29.25 25 29.25H5C2.92894 29.25 1.25 27.5711 1.25 25.5V5.5C1.25 3.42894 2.92894 1.75 5 1.75H25ZM25 4.25C25.6904 4.25 26.25 4.80965 26.25 5.5V25.5C26.25 26.1904 25.6904 26.75 25 26.75H18.75V17.9999H21.3453C21.8833 17.9999 22.3609 17.6556 22.5311 17.1451L23.0849 15.4839C23.2872 14.8767 22.8354 14.2499 22.1955 14.2499H18.75V11.7499C18.75 11.1249 19.375 10.4999 20 10.4999H22.5C23.1904 10.4999 23.75 9.94025 23.75 9.2499V8.39241C23.75 7.98864 23.4921 7.62662 23.1016 7.52359C21.4631 7.09119 20 7.09119 20 7.09119C16.875 7.09119 15 9.2499 15 11.1249V14.2499H12.5C11.8097 14.2499 11.25 14.8095 11.25 15.4999V16.7499C11.25 17.4402 11.8096 17.9999 12.5 17.9999H15V26.75H5C4.30965 26.75 3.75 26.1904 3.75 25.5V5.5C3.75 4.80965 4.30965 4.25 5 4.25H25Z" fill="#353535"/>
</g>
</svg>
