<svg width="35" height="36" viewBox="0 0 35 36" fill="none" xmlns="http://www.w3.org/2000/svg">
<g id="farmhouse_svgrepo.com">
<path id="Vector" d="M14.8144 18.9407C14.7765 21.4012 14.7064 23.8522 14.9416 26.2763" stroke="#1768AC" stroke-width="2.4" stroke-linecap="round" stroke-linejoin="round"/>
<path id="Vector_2" d="M24.4114 17.5493C24.4027 19.632 24.6556 23.9198 24.6556 25.8968" stroke="#1768AC" stroke-width="2.4" stroke-linecap="round" stroke-linejoin="round"/>
<path id="Vector_3" d="M25.9171 18.9406C24.6645 17.119 22.6222 14.9688 19.7904 12.4902C19.5313 12.4902 14.7808 17.104 13.699 18.8032C13.6876 18.8212 13.6729 18.8391 13.6562 18.8623" stroke="#1768AC" stroke-width="2.4" stroke-linecap="round" stroke-linejoin="round"/>
<path id="Vector_4" d="M23.5779 15.7154C23.5779 14.7641 23.3203 13.9591 23.9009 12.8091C25.7069 9.23148 30.3512 10.0095 30.3512 14.1345C30.4266 16.3629 30.0983 24.2446 30.0983 26.5292" stroke="#1768AC" stroke-width="2.4" stroke-linecap="round" stroke-linejoin="round"/>
<path id="Vector_5" d="M29.7187 14.1461C28.0728 14.0949 26.5118 14.2283 24.9126 14.261" stroke="#1768AC" stroke-width="2.4" stroke-linecap="round" stroke-linejoin="round"/>
<path id="Vector_6" d="M4.5498 24.4084C7.3726 24.0723 9.03733 23.9998 13.2767 23.9998" stroke="#1768AC" stroke-width="2.4" stroke-linecap="round" stroke-linejoin="round"/>
<path id="Vector_7" d="M11.7634 23.3674C11.7548 24.1878 12.0077 25.877 12.0077 26.6558" stroke="#1768AC" stroke-width="2.4" stroke-linecap="round" stroke-linejoin="round"/>
<path id="Vector_8" d="M8.85216 23.241C8.84787 24.1245 8.97431 25.9436 8.97431 26.7824" stroke="#1768AC" stroke-width="2.4" stroke-linecap="round" stroke-linejoin="round"/>
<path id="Vector_9" d="M5.94553 23.1145C5.93692 24.0612 6.18987 26.0101 6.18987 26.9088" stroke="#1768AC" stroke-width="2.4" stroke-linecap="round" stroke-linejoin="round"/>
<path id="Vector_10" d="M17.2828 26.1237C17.2178 25.3838 17.076 22.0567 17.4179 21.7529C17.4775 21.7 18.6897 21.5972 19.4926 21.5972C20.2955 21.5972 21.7872 21.5882 21.7872 21.6428C21.7872 22.1333 21.8103 22.8581 21.8325 23.5767C21.8615 24.5223 21.8866 25.4791 21.8325 26.0953" stroke="#1768AC" stroke-width="2.4" stroke-linecap="round" stroke-linejoin="round"/>
<path id="Vector_11" opacity="0.503384" d="M18.2095 22.6667C20.699 28.5389 19.2673 25.6573 20.992 21.9761" stroke="#1768AC" stroke-width="2.4" stroke-linecap="round" stroke-linejoin="round"/>
<path id="Vector_12" d="M18.6836 16.6384C19.5042 15.6281 21.5145 16.9842 20.6488 18.1737C19.6611 19.5307 17.7933 18.454 18.4867 17.0974" stroke="#1768AC" stroke-width="2.4" stroke-linecap="round" stroke-linejoin="round"/>
</g>
</svg>
