<svg width="30" height="31" viewBox="0 0 30 31" fill="none" xmlns="http://www.w3.org/2000/svg">
<g id="flame_svgrepo.com">
<path id="Vector" d="M25 18.9497C25 24.2678 21.7274 26.6016 19.1985 27.3884C18.6592 27.5563 18.3047 26.9276 18.6274 26.4641C19.7279 24.8824 21 22.4696 21 20.1997C21 17.7614 18.9449 14.8828 17.3401 13.1073C16.9732 12.7014 16.3334 12.9701 16.3134 13.5168C16.247 15.3283 15.9611 17.7519 14.7285 19.6514C14.5301 19.9572 14.109 19.9824 13.8829 19.6966C13.4977 19.2096 13.1126 18.6078 12.7275 18.1324C12.52 17.8764 12.145 17.8729 11.9058 18.0994C10.9728 18.9828 9.66666 20.3604 9.66666 22.0747C9.66666 23.3113 10.256 24.8504 10.8635 26.0423C11.1393 26.5836 10.6275 27.2184 10.1018 26.9141C7.80697 25.5857 5 22.8333 5 18.9497C5 15.0167 10.3879 9.56824 12.4451 4.42087C12.7696 3.60862 13.7701 3.22695 14.4659 3.757C18.6799 6.96708 25 13.1723 25 18.9497Z" stroke="#9E9E9E" stroke-width="2"/>
</g>
</svg>
