<svg width="60" height="60" viewBox="0 0 60 60" fill="none" xmlns="http://www.w3.org/2000/svg">
<g id="flame_svgrepo.com">
<path id="Vector" d="M50 37.5C50 48.1363 43.4547 52.8038 38.397 54.3775C37.3185 54.7133 36.6095 53.4558 37.2547 52.5288C39.4557 49.3655 42 44.5398 42 40C42 35.1235 37.8897 29.3663 34.6802 25.8153C33.9465 25.0035 32.6667 25.5408 32.6267 26.6343C32.494 30.2573 31.9222 35.1045 29.457 38.9035C29.0602 39.515 28.218 39.5655 27.7657 38.9938C26.9955 38.0198 26.2252 36.8163 25.455 35.8655C25.04 35.3535 24.2901 35.3465 23.8115 35.7995C21.9456 37.5663 19.3333 40.3215 19.3333 43.75C19.3333 46.2233 20.512 49.3015 21.7269 51.6853C22.2787 52.7678 21.2551 54.0375 20.2035 53.4288C15.6139 50.772 10 45.2673 10 37.5C10 29.634 20.7757 18.7371 24.8901 8.44235C25.5392 6.81785 27.5402 6.05452 28.9317 7.11462C37.3597 13.5348 50 25.9453 50 37.5Z" stroke="#1768AC" stroke-width="3.75"/>
</g>
</svg>
