<svg width="30" height="30" viewBox="0 0 30 30" fill="none" xmlns="http://www.w3.org/2000/svg">
<g id="google-color_svgrepo.com" clip-path="url(#clip0_159_1408)">
<g id="Icons">
<g id="Color-">
<g id="Google">
<path id="Fill-1" fill-rule="evenodd" clip-rule="evenodd" d="M6.45384 14.9999C6.45384 14.0472 6.61206 13.1339 6.89446 12.2772L1.95145 8.50256C0.988082 10.4586 0.445312 12.6626 0.445312 14.9999C0.445312 17.3352 0.987415 19.5379 1.94945 21.4926L6.88979 17.7106C6.61006 16.8579 6.45384 15.9479 6.45384 14.9999Z" fill="#FBBC05"/>
<path id="Fill-2" fill-rule="evenodd" clip-rule="evenodd" d="M15.1325 6.33325C17.2021 6.33325 19.0715 7.06659 20.5402 8.26658L24.8129 3.99992C22.2092 1.73325 18.8712 0.333252 15.1325 0.333252C9.3283 0.333252 4.33989 3.65259 1.95117 8.50259L6.89418 12.2773C8.03313 8.81992 11.2797 6.33325 15.1325 6.33325Z" fill="#EB4335"/>
<path id="Fill-3" fill-rule="evenodd" clip-rule="evenodd" d="M15.1325 23.6666C11.2797 23.6666 8.03313 21.1799 6.89418 17.7226L1.95117 21.4966C4.33989 26.3473 9.3283 29.6666 15.1325 29.6666C18.715 29.6666 22.1351 28.3946 24.7021 26.0113L20.0101 22.3839C18.6862 23.2179 17.0192 23.6666 15.1325 23.6666Z" fill="#34A853"/>
<path id="Fill-4" fill-rule="evenodd" clip-rule="evenodd" d="M29.1527 14.9999C29.1527 14.1333 29.0192 13.1999 28.8189 12.3333H15.1328V17.9999H23.0107C22.6168 19.9319 21.5446 21.4173 20.0104 22.3839L24.7024 26.0113C27.3989 23.5086 29.1527 19.7806 29.1527 14.9999Z" fill="#4285F4"/>
</g>
</g>
</g>
</g>
<defs>
<clipPath id="clip0_159_1408">
<rect width="30" height="30" fill="white"/>
</clipPath>
</defs>
</svg>
