<svg width="40" height="40" viewBox="0 0 40 40" fill="none" xmlns="http://www.w3.org/2000/svg">
<g id="gym_svgrepo.com">
<path id="Vector" d="M29.3332 14.6667H31.111C31.6017 14.6667 31.9999 15.065 31.9999 15.5556V24.4445C31.9999 24.9352 31.6017 25.3334 31.111 25.3334H29.3332C28.8426 25.3334 28.4443 24.9352 28.4443 24.4445V15.5556C28.4443 15.065 28.8426 14.6667 29.3332 14.6667Z" stroke="#1768AC" stroke-width="2.66667"/>
<path id="Vector_2" d="M25.7776 11.1111H27.5553C28.046 11.1111 28.4442 11.5093 28.4442 12V28C28.4442 28.4906 28.046 28.8889 27.5553 28.8889H25.7776C25.2869 28.8889 24.8887 28.4906 24.8887 28V12C24.8887 11.5093 25.2869 11.1111 25.7776 11.1111Z" stroke="#1768AC" stroke-width="2.66667"/>
<path id="Vector_3" d="M13.3332 11.1111H15.111C15.6017 11.1111 15.9999 11.5093 15.9999 12V28C15.9999 28.4906 15.6017 28.8889 15.111 28.8889H13.3332C12.8426 28.8889 12.4443 28.4906 12.4443 28V12C12.4443 11.5093 12.8426 11.1111 13.3332 11.1111Z" stroke="#1768AC" stroke-width="2.66667"/>
<path id="Vector_4" d="M9.77756 14.6667H11.5553C12.046 14.6667 12.4442 15.065 12.4442 15.5556V24.4445C12.4442 24.9352 12.046 25.3334 11.5553 25.3334H9.77756C9.28689 25.3334 8.88867 24.9352 8.88867 24.4445V15.5556C8.88867 15.065 9.28689 14.6667 9.77756 14.6667Z" stroke="#1768AC" stroke-width="2.66667"/>
<path id="Vector_5" d="M32 20H34.6667" stroke="#1768AC" stroke-width="2.66667"/>
<path id="Vector_6" d="M16 20H24.8889" stroke="#1768AC" stroke-width="2.66667"/>
<path id="Vector_7" d="M6.22217 20H8.88883" stroke="#1768AC" stroke-width="2.66667"/>
</g>
</svg>
