<svg width="30" height="30" viewBox="0 0 30 30" fill="none" xmlns="http://www.w3.org/2000/svg">
<g id="city-hall_svgrepo.com" clip-path="url(#clip0_578_9490)">
<g id="Group">
<g id="Group_2">
<path id="Vector" d="M29.4296 16.9636H23.3076V12.6288C23.3076 12.3138 23.0523 12.0584 22.7373 12.0584H22.0153C22.0153 12.0584 22.0163 9.97613 22.0152 9.96168C21.9927 6.3053 19.1585 3.30362 15.5704 3.01357V1.6297C15.5704 1.3147 15.3151 1.05933 15.0001 1.05933C14.6851 1.05933 14.4297 1.3147 14.4297 1.6297V3.01342C10.8272 3.30469 7.98482 6.32917 7.98482 10.0053V12.0583H7.26273C6.94773 12.0583 6.69235 12.3137 6.69235 12.6287V16.9635H0.570371C0.255374 16.9635 0 17.2189 0 17.5338V28.3701C0 28.6851 0.255374 28.9405 0.570371 28.9405H29.4296C29.7446 28.9405 30 28.6851 30 28.3701V17.534C30 17.219 29.7446 16.9636 29.4296 16.9636ZM15.0001 4.13089C18.0469 4.13089 20.5594 6.46241 20.8471 9.43504H9.15301C9.44071 6.46241 11.9532 4.13089 15.0001 4.13089ZM9.12556 10.5758H20.8746V12.0584H20.0954V11.4021C20.0954 11.0871 19.84 10.8317 19.525 10.8317C19.21 10.8317 18.9546 11.0871 18.9546 11.4021V12.0584H18.2854V11.4021C18.2854 11.0871 18.03 10.8317 17.715 10.8317C17.4 10.8317 17.1447 11.0871 17.1447 11.4021V12.0584H16.4754V11.4021C16.4754 11.0871 16.2201 10.8317 15.9051 10.8317C15.5901 10.8317 15.3347 11.0871 15.3347 11.4021V12.0584H14.6655V11.4021C14.6655 11.0871 14.4101 10.8317 14.0951 10.8317C13.7801 10.8317 13.5247 11.0871 13.5247 11.4021V12.0584H12.8555V11.4021C12.8555 11.0871 12.6001 10.8317 12.2851 10.8317C11.9701 10.8317 11.7147 11.0871 11.7147 11.4021V12.0584H11.0455V11.4021C11.0455 11.0871 10.7901 10.8317 10.4751 10.8317C10.1601 10.8317 9.90476 11.0871 9.90476 11.4021V12.0584H9.12556V10.5758ZM7.8331 13.1992H22.1669V16.9636H21.3015V16.8397C21.3015 16.5865 21.1346 16.3636 20.8916 16.2923L15.1879 14.6193C15.0831 14.5885 14.9716 14.5885 14.8668 14.6193L9.16313 16.2923C8.92015 16.3636 8.7533 16.5865 8.7533 16.8397V16.9636H7.8331V13.1992ZM17.8032 19.6154V27.7998H16.4723V19.6154H17.8032ZM9.89404 18.4747V17.2667L15.0274 15.7609L20.1607 17.2667V18.4747H9.89404ZM13.5824 19.6154V27.7998H12.2516V19.6154H13.5824ZM1.14074 18.1044H8.7533V19.0451C8.7533 19.3601 9.00867 19.6155 9.32367 19.6155H9.36169V27.7999H1.14074V18.1044ZM10.5024 27.7998V19.6154H11.1108V27.7998H10.5024ZM14.7232 27.7998V19.6154H15.3316V27.7998H14.7232ZM18.9439 27.7998V19.6154H19.5523V27.7998H18.9439ZM28.8593 27.7998H20.6931V19.6154H20.7311C21.0461 19.6154 21.3015 19.36 21.3015 19.045V18.1043H28.8593V27.7998Z" fill="#1768AC"/>
<path id="Vector_2" d="M4.64678 18.73C3.74522 18.73 3.01172 19.4635 3.01172 20.365V21.9621C3.01172 22.2771 3.26709 22.5325 3.58209 22.5325H5.71148C6.02647 22.5325 6.28185 22.2771 6.28185 21.9621V20.365C6.28185 19.4635 5.54835 18.73 4.64678 18.73ZM5.1411 21.3917H4.15246V20.365C4.15246 20.0925 4.37422 19.8707 4.64678 19.8707C4.91934 19.8707 5.1411 20.0925 5.1411 20.365V21.3917Z" fill="#1768AC"/>
<path id="Vector_3" d="M4.64678 23.0647C3.74522 23.0647 3.01172 23.7982 3.01172 24.6998V26.2968C3.01172 26.6118 3.26709 26.8672 3.58209 26.8672H5.71148C6.02647 26.8672 6.28185 26.6118 6.28185 26.2968V24.6998C6.28185 23.7982 5.54835 23.0647 4.64678 23.0647ZM5.1411 25.7264H4.15246V24.6998C4.15246 24.4272 4.37422 24.2054 4.64678 24.2054C4.91934 24.2054 5.1411 24.4272 5.1411 24.6998V25.7264Z" fill="#1768AC"/>
<path id="Vector_4" d="M24.3433 22.5325H26.4727C26.7877 22.5325 27.0431 22.2771 27.0431 21.9621V20.365C27.0431 19.4635 26.3096 18.73 25.408 18.73C24.5064 18.73 23.7729 19.4635 23.7729 20.365V21.9621C23.7729 22.2772 24.0283 22.5325 24.3433 22.5325ZM24.9137 20.365C24.9137 20.0925 25.1355 19.8707 25.408 19.8707C25.6806 19.8707 25.9023 20.0925 25.9023 20.365V21.3917H24.9137V20.365Z" fill="#1768AC"/>
<path id="Vector_5" d="M24.3433 26.8672H26.4727C26.7877 26.8672 27.0431 26.6118 27.0431 26.2968V24.6998C27.0431 23.7982 26.3096 23.0647 25.408 23.0647C24.5064 23.0647 23.7729 23.7982 23.7729 24.6998V26.2968C23.7729 26.6119 24.0283 26.8672 24.3433 26.8672ZM24.9137 24.6998C24.9137 24.4272 25.1355 24.2054 25.408 24.2054C25.6806 24.2054 25.9023 24.4272 25.9023 24.6998V25.7264H24.9137V24.6998Z" fill="#1768AC"/>
</g>
</g>
</g>
<defs>
<clipPath id="clip0_578_9490">
<rect width="30" height="30" fill="white"/>
</clipPath>
</defs>
</svg>
