<svg width="30" height="30" viewBox="0 0 30 30" fill="none" xmlns="http://www.w3.org/2000/svg">
<g id="info-circle_svgrepo.com">
<path id="Vector" d="M15 22.1875C15.5178 22.1875 15.9375 21.7677 15.9375 21.25V13.75C15.9375 13.2322 15.5178 12.8125 15 12.8125C14.4822 12.8125 14.0625 13.2322 14.0625 13.75V21.25C14.0625 21.7677 14.4822 22.1875 15 22.1875Z" fill="#2541B2"/>
<path id="Vector_2" d="M15 8.75C15.6904 8.75 16.25 9.30965 16.25 10C16.25 10.6904 15.6904 11.25 15 11.25C14.3096 11.25 13.75 10.6904 13.75 10C13.75 9.30965 14.3096 8.75 15 8.75Z" fill="#2541B2"/>
<path id="Vector_3" fill-rule="evenodd" clip-rule="evenodd" d="M1.5625 15C1.5625 7.57868 7.57868 1.5625 15 1.5625C22.4214 1.5625 28.4375 7.57868 28.4375 15C28.4375 22.4214 22.4214 28.4375 15 28.4375C7.57868 28.4375 1.5625 22.4214 1.5625 15ZM15 3.4375C8.61421 3.4375 3.4375 8.61421 3.4375 15C3.4375 21.3857 8.61421 26.5625 15 26.5625C21.3857 26.5625 26.5625 21.3857 26.5625 15C26.5625 8.61421 21.3857 3.4375 15 3.4375Z" fill="#2541B2"/>
</g>
</svg>
