<svg width="90" height="70" viewBox="0 0 90 70" fill="none" xmlns="http://www.w3.org/2000/svg">
<g id="stove-cooking-pot_svgrepo.com" clip-path="url(#clip0_347_10836)">
<g id="Group">
<path id="Vector" d="M40.9351 1.90729C40.5615 1.5179 40.5615 0.884192 40.9351 0.48717C41.3086 0.0977826 41.9165 0.0977826 42.2974 0.48717C44.3115 2.58681 43.5425 4.07564 42.6562 5.8088C42.0264 7.03804 41.3013 8.44289 42.4512 10.5196C42.7148 11.0006 42.561 11.6114 42.0996 11.8863C41.6382 12.1612 41.0522 12.0008 40.7886 11.5198C39.104 8.48106 40.1001 6.5494 40.9644 4.86205C41.4844 3.84659 41.9458 2.96092 40.9351 1.90729ZM3.9624 42.2814H12.2095C12.2021 41.2049 12.1729 40.3803 12.1582 39.6702C12.085 36.9674 12.041 35.616 12.8833 34.6311C13.7915 33.5698 15.0146 33.6156 17.4756 33.6996C18.2739 33.7302 19.248 33.7607 20.6396 33.7607C21.3867 33.7607 21.9873 34.3868 21.9873 35.1655C21.9873 35.9443 21.3867 36.5704 20.6396 36.5704C19.4751 36.5704 18.3325 36.5322 17.3877 36.494C15.769 36.433 14.9634 36.4101 14.8901 36.494C14.7583 36.6467 14.7876 37.6317 14.8389 39.5862C14.8608 40.3803 14.8901 41.3041 14.8975 42.2738H30.2124V36.7155C30.2124 36.1199 30.813 35.6313 31.5601 35.6313C32.3071 35.6313 32.9077 36.1123 32.9077 36.7155V42.2738H48.2227C48.2373 41.3041 48.2593 40.3879 48.2812 39.5862C48.3398 37.6317 48.3618 36.6467 48.23 36.494C48.1567 36.4101 47.3511 36.4406 45.7324 36.494C44.7949 36.5246 43.645 36.5704 42.4805 36.5704C41.7334 36.5704 41.1328 35.9443 41.1328 35.1655C41.1328 34.3868 41.7334 33.7607 42.4805 33.7607C43.8794 33.7607 44.8462 33.7225 45.6445 33.6996C48.1055 33.608 49.3286 33.5698 50.2368 34.6311C51.0718 35.616 51.0352 36.9674 50.9619 39.6702C50.9399 40.3803 50.918 41.2049 50.9106 42.2814H70.2246C71.3159 42.2814 72.3047 42.7471 73.0225 43.4954C73.0518 43.5259 73.0811 43.5565 73.103 43.587C73.7695 44.3276 74.1797 45.3201 74.1797 46.412V50.2371C76.9116 50.26 79.1235 52.5811 79.1235 55.4366C79.1235 58.2921 76.9116 60.6131 74.1797 60.6361V64.0107C74.1797 65.1407 73.7329 66.1715 73.0151 66.9197C72.2974 67.6679 71.3086 68.126 70.2246 68.126H63.8452V69.592C63.8452 69.9279 63.2446 70.1951 62.4976 70.1951C61.7505 70.1951 61.1499 69.9279 61.1499 69.592V68.126H10.8691V69.592C10.8691 69.9279 10.2686 70.1951 9.52148 70.1951C8.77441 70.1951 8.17383 69.9279 8.17383 69.592V68.126H3.9624C2.87842 68.126 1.88965 67.6603 1.16455 66.9121C0.446777 66.1715 0 65.1407 0 64.0031V46.412C0 45.282 0.446777 44.2512 1.16455 43.503C1.88232 42.7471 2.87109 42.2814 3.9624 42.2814ZM70.2319 45.0911H3.9624C3.61816 45.0911 3.2959 45.2438 3.06885 45.4805C2.8418 45.7172 2.69531 46.0531 2.69531 46.412V64.0031C2.69531 64.362 2.8418 64.6979 3.06885 64.9346C3.2959 65.1713 3.61084 65.3163 3.9624 65.3163H70.2393C70.5908 65.3163 70.9058 65.1713 71.1328 64.9346L71.1401 64.9269C71.3672 64.6903 71.5063 64.362 71.5063 63.9955V46.412C71.5063 46.076 71.3818 45.763 71.1841 45.5263C71.1694 45.511 71.1475 45.4958 71.1328 45.4805C70.8984 45.2438 70.5835 45.0911 70.2319 45.0911ZM86.9238 17.9256H71.6382C70.4297 17.9256 69.375 18.6662 68.877 19.7275H56.7261L57.1289 17.498C57.2388 16.872 56.8433 16.2688 56.25 16.1543C56.1841 16.139 56.1108 16.1314 56.0449 16.1314H9.88037C9.27246 16.1314 8.77441 16.6506 8.77441 17.2843C8.77441 17.4141 8.79639 17.5439 8.83301 17.6584L10.4883 24.2016C10.9717 26.0951 11.7773 27.8893 12.9932 29.1568C14.0991 30.3097 15.5054 31.0273 17.2705 31.0273H49.1235C50.9253 31.0273 52.4194 30.2867 53.562 29.0957C54.7778 27.8283 55.5762 26.0493 55.9277 24.1253L56.2134 22.5372H68.877C69.3823 23.5984 70.4297 24.3391 71.6382 24.3391H86.9238C88.6157 24.3391 90 22.896 90 21.1323C90 19.3686 88.6157 17.9256 86.9238 17.9256ZM53.7598 23.6977C53.4961 25.1789 52.8955 26.5227 52.002 27.4618C51.2549 28.2406 50.2954 28.7216 49.1309 28.7216H17.2705C16.1572 28.7216 15.2563 28.2635 14.5532 27.5305C13.6377 26.5761 13.0078 25.156 12.6196 23.6214L11.3086 18.4448H54.7119C54.3896 20.2009 54.082 21.934 53.7598 23.6977ZM22.0825 1.90729C21.709 1.5179 21.709 0.884192 22.0825 0.48717C22.4561 0.0977826 23.064 0.0977826 23.4448 0.48717C25.459 2.58681 24.6899 4.07564 23.7964 5.8088C23.1665 7.03804 22.4414 8.44289 23.5913 10.5196C23.855 11.0006 23.7012 11.6114 23.2397 11.8863C22.7783 12.1612 22.1924 12.0008 21.9287 11.5198C20.2441 8.48106 21.2402 6.5494 22.1045 4.86205C22.6318 3.84659 23.0933 2.96092 22.0825 1.90729ZM28.3667 1.90729C27.9932 1.5179 27.9932 0.884192 28.3667 0.48717C28.7402 0.0977826 29.3481 0.0977826 29.729 0.48717C31.7432 2.58681 30.9741 4.07564 30.0879 5.8088C29.458 7.03804 28.7329 8.45052 29.8828 10.5273C30.1465 11.0083 29.9854 11.6191 29.5312 11.8939C29.0698 12.1688 28.4839 12.0008 28.2202 11.5274C26.5356 8.4887 27.5317 6.56467 28.396 4.87732C28.916 3.84659 29.3774 2.96092 28.3667 1.90729ZM34.6509 1.90729C34.2773 1.5179 34.2773 0.884192 34.6509 0.48717C35.0244 0.0977826 35.6323 0.0977826 36.0132 0.48717C38.0273 2.58681 37.2583 4.08328 36.3721 5.8088C35.7422 7.03804 35.0171 8.45052 36.167 10.5273C36.4307 11.0083 36.2695 11.6191 35.8154 11.8939C35.354 12.1688 34.7681 12.0008 34.5044 11.5274C32.8198 8.4887 33.8159 6.56467 34.6802 4.87732C35.2002 3.84659 35.6616 2.96092 34.6509 1.90729Z" fill="#1768AC"/>
</g>
</g>
<defs>
<clipPath id="clip0_347_10836">
<rect width="90" height="70" fill="white"/>
</clipPath>
</defs>
</svg>
