<svg width="90" height="60" viewBox="0 0 90 60" fill="none" xmlns="http://www.w3.org/2000/svg">
<g id="lounge_svgrepo.com">
<path id="Vector" d="M17.6062 31.1957H43.1249C43.6222 31.1957 44.0991 31.4247 44.4507 31.8324C44.8024 32.2401 44.9999 32.793 44.9999 33.3696V44.2391H15.7124V33.3696C15.7124 33.0823 15.7615 32.7978 15.8569 32.5326C15.9523 32.2674 16.0921 32.0268 16.2682 31.8247C16.4443 31.6225 16.6532 31.4628 16.8829 31.3549C17.1125 31.2469 17.3584 31.1928 17.6062 31.1957Z" stroke="#1768AC" stroke-width="2.5" stroke-linecap="round" stroke-linejoin="round"/>
<path id="Vector_2" d="M15.7124 33.3913V11.4783C15.7124 10.6653 15.9909 9.88568 16.4867 9.31084C16.9825 8.736 17.655 8.41306 18.3562 8.41306H42.3561C43.0573 8.41306 43.7298 8.736 44.2256 9.31084C44.7214 9.88568 44.9999 10.6653 44.9999 11.4783V33.3913" stroke="#1768AC" stroke-width="2.5" stroke-linecap="round" stroke-linejoin="round"/>
<path id="Vector_3" d="M45 33.3913V11.4783C45 10.6653 45.2785 9.88568 45.7743 9.31084C46.2701 8.736 46.9426 8.41306 47.6437 8.41306H71.6437C72.3449 8.41306 73.0174 8.736 73.5132 9.31084C74.009 9.88568 74.2875 10.6653 74.2875 11.4783V33.3913" stroke="#1768AC" stroke-width="2.5" stroke-linecap="round" stroke-linejoin="round"/>
<path id="Vector_4" d="M10.0501 20.8044H14.1001C14.5277 20.8044 14.9379 21.0013 15.2403 21.3519C15.5427 21.7025 15.7126 22.1781 15.7126 22.6739V44.413H10.4438C10.1755 44.4132 9.90998 44.3509 9.66283 44.23C9.41568 44.109 9.19196 43.9318 9.00491 43.7089C8.81786 43.4859 8.67127 43.2217 8.57382 42.9319C8.47637 42.6422 8.43003 42.3327 8.43756 42.0217V22.6739C8.43756 22.1781 8.60744 21.7025 8.90985 21.3519C9.21225 21.0013 9.6224 20.8044 10.0501 20.8044Z" stroke="#1768AC" stroke-width="2.5" stroke-linecap="round" stroke-linejoin="round"/>
<path id="Vector_5" d="M79.5563 44.3696H74.2875V22.6304C74.2875 22.1346 74.4574 21.6591 74.7598 21.3085C75.0622 20.9578 75.4723 20.7609 75.9 20.7609H79.95C80.3777 20.7609 80.7878 20.9578 81.0902 21.3085C81.3926 21.6591 81.5625 22.1346 81.5625 22.6304V41.9783C81.5625 42.5952 81.3511 43.1868 80.9749 43.6231C80.5986 44.0593 80.0883 44.3043 79.5563 44.3043V44.3696Z" stroke="#1768AC" stroke-width="2.5" stroke-linecap="round" stroke-linejoin="round"/>
<path id="Vector_6" d="M46.875 31.1956H72.3938C72.891 31.1956 73.3679 31.4247 73.7196 31.8324C74.0712 32.2401 74.2688 32.793 74.2688 33.3696V44.2391H45V33.3696C45 32.793 45.1975 32.2401 45.5492 31.8324C45.9008 31.4247 46.3777 31.1956 46.875 31.1956Z" stroke="#1768AC" stroke-width="2.5" stroke-linecap="round" stroke-linejoin="round"/>
<path id="Vector_7" d="M21.4687 44.3696H15.7124V52.4783H21.4687V44.3696Z" stroke="#1768AC" stroke-width="2.5" stroke-linecap="round" stroke-linejoin="round"/>
<path id="Vector_8" d="M74.2875 44.3696H68.5312V52.4783H74.2875V44.3696Z" stroke="#1768AC" stroke-width="2.5" stroke-linecap="round" stroke-linejoin="round"/>
</g>
</svg>
