<svg width="60" height="60" viewBox="0 0 60 60" fill="none" xmlns="http://www.w3.org/2000/svg">
<g id="general-office-repair-2_svgrepo.com">
<g id="Group">
<g id="Group_2">
<path id="Vector" d="M25.6095 36.7029L26.0592 36.2571L26.046 36.2466C25.4651 35.6591 29.3321 31.7268 29.3321 31.7268L23.9789 26.3743L5.71191 44.1125C4.41103 45.416 3.78664 47.2147 3.95938 49.1802C4.11894 51.0218 4.97015 52.8 6.47345 54.304C8.07565 55.9022 10.1348 56.7171 12.0996 56.7171C13.7618 56.7171 15.3554 56.131 16.5475 54.9429L29.9044 41.5846L26.5345 38.1758C26.1126 37.7486 25.8139 37.2448 25.6095 36.7029Z" fill="#1768AC"/>
<path id="Vector_2" d="M57.8078 11.0552L56.739 8.48967L49.8568 15.3738C48.6852 16.5455 47.6573 17.1396 46.8008 17.1396C46.1467 17.1396 45.4782 16.7855 44.7265 16.0358L44.6026 15.9145C43.481 14.793 42.614 13.4782 45.2863 10.8046L52.1738 3.9178L49.6069 2.84901C44.3804 0.671865 38.9045 -0.707476 34.2542 3.94615L29.9968 8.19956C25.6762 12.5255 24.1874 17.4369 25.5799 22.3075L29.8722 26.6894L33.2269 23.3347C33.2269 23.3347 35.3685 24.4477 36.8982 25.4327L46.0465 34.7037C48.2869 34.0226 50.4404 32.6868 52.4632 30.6626L56.71 26.4086C61.3669 21.7589 59.9902 16.2804 57.8078 11.0552Z" fill="#1768AC"/>
<path id="Vector_3" d="M52.8113 45.9442L35.9157 28.8224C35.3618 28.2587 34.6642 27.8156 33.8401 27.5064L32.8445 27.1319L29.826 30.1516L13.8614 14.1877L15.335 12.7127C15.7319 12.3171 15.9284 11.764 15.8711 11.2075C15.8144 10.6497 15.5104 10.1479 15.0416 9.83999L6.40886 4.16769C5.67106 3.68373 4.69325 3.78395 4.06754 4.40901L1.11237 7.36945C0.489297 7.99384 0.389736 8.97032 0.874352 9.70681L6.54468 18.3402C6.85127 18.809 7.35369 19.1143 7.91084 19.171C7.97413 19.1776 8.03677 19.1802 8.10007 19.1802C8.59193 19.1802 9.066 18.9857 9.41743 18.6356L10.7493 17.3031L26.7126 33.2664L23.6875 36.2927L24.0647 37.2897C24.3673 38.0855 24.8025 38.7732 25.3603 39.3369L42.2691 56.4692C43.382 57.5822 44.9104 58.1947 46.5726 58.1947H46.5739C48.548 58.1947 50.5418 57.3316 52.0689 55.8033L52.1565 55.7116C53.5128 54.3593 54.3442 52.6273 54.4992 50.8352C54.664 48.9356 54.0614 47.1969 52.8113 45.9442ZM49.7948 53.4L49.7045 53.4956C48.8183 54.3818 47.6763 54.8914 46.5726 54.8914C46.0201 54.8914 45.2282 54.7589 44.6084 54.1404L27.7095 37.016C27.6963 37.0029 27.6838 36.9903 27.6706 36.9771L33.5341 31.1123C33.542 31.1215 33.5493 31.1301 33.5572 31.138L50.466 48.271C51.0225 48.8301 51.2875 49.6398 51.2078 50.549C51.1187 51.5677 50.6269 52.5692 49.7948 53.4Z" fill="#1768AC"/>
</g>
</g>
</g>
</svg>
