<svg width="65" height="65" viewBox="0 0 65 65" fill="none" xmlns="http://www.w3.org/2000/svg">
<g id="mosque-2_svgrepo.com">
<path id="Vector" d="M59.5832 2.70834C58.865 2.70834 58.1761 2.99369 57.6682 3.5016C57.1603 4.00951 56.8749 4.69838 56.8749 5.41668V24.375H47.607C50.5591 16.9108 47.3849 10.1021 40.262 6.39709C33.1391 2.69209 33.1635 2.70834 32.4999 2.70834C32.0647 2.70908 31.6359 2.81304 31.2487 3.01168L24.7487 6.39709C17.6041 10.0994 14.4408 16.9108 17.3928 24.375H8.12492V5.41668C8.12492 4.69838 7.83958 4.00951 7.33167 3.5016C6.82375 2.99369 6.13488 2.70834 5.41658 2.70834C4.69829 2.70834 4.00942 2.99369 3.5015 3.5016C2.99359 4.00951 2.70825 4.69838 2.70825 5.41668V59.5833C2.70825 60.3016 2.99359 60.9905 3.5015 61.4984C4.00942 62.0063 4.69829 62.2917 5.41658 62.2917H59.5832C60.3015 62.2917 60.9904 62.0063 61.4983 61.4984C62.0062 60.9905 62.2916 60.3016 62.2916 59.5833V5.41668C62.2916 4.69838 62.0062 4.00951 61.4983 3.5016C60.9904 2.99369 60.3015 2.70834 59.5832 2.70834ZM27.2376 11.2071C30.0001 9.76626 31.5899 8.93751 32.4999 8.46897L37.7622 11.2071C43.4957 14.1863 44.8039 19.1967 41.6622 24.375H23.3376C20.2122 19.2021 21.496 14.189 27.2376 11.2071ZM29.7916 56.875V48.75C29.7916 48.0317 30.0769 47.3428 30.5848 46.8349C31.0927 46.327 31.7816 46.0417 32.4999 46.0417C33.2182 46.0417 33.9071 46.327 34.415 46.8349C34.9229 47.3428 35.2082 48.0317 35.2082 48.75V56.875H29.7916ZM56.8749 56.875H40.6249V48.75C40.6249 46.5951 39.7689 44.5285 38.2452 43.0048C36.7214 41.481 34.6548 40.625 32.4999 40.625C30.345 40.625 28.2784 41.481 26.7547 43.0048C25.2309 44.5285 24.3749 46.5951 24.3749 48.75V56.875H8.12492V29.7917H56.8749V56.875ZM10.8333 32.5H54.1666V37.9167H10.8333V32.5ZM43.3332 43.3333H54.1666V48.75H43.3332V43.3333ZM10.8333 43.3333H21.6666V48.75H10.8333V43.3333Z" fill="#1768AC"/>
</g>
</svg>
