<svg width="65" height="65" viewBox="0 0 65 65" fill="none" xmlns="http://www.w3.org/2000/svg">
<g id="gas-station_svgrepo.com">
<path id="Vector" d="M43.3333 59.5833V21.6667C43.3333 14.0063 43.3333 10.1762 40.9535 7.79641C38.5737 5.41666 34.7436 5.41666 27.0833 5.41666H24.375C16.7147 5.41666 12.8845 5.41666 10.5048 7.79641C8.125 10.1762 8.125 14.0063 8.125 21.6667V59.5833" stroke="#1768AC" stroke-width="3.75"/>
<path id="Vector_2" d="M29.7917 16.25H21.6667C19.1132 16.25 17.8365 16.25 17.0432 17.0432C16.25 17.8365 16.25 19.1132 16.25 21.6667C16.25 24.2201 16.25 25.4968 17.0432 26.2901C17.8365 27.0833 19.1132 27.0833 21.6667 27.0833H29.7917C32.3451 27.0833 33.6218 27.0833 34.4151 26.2901C35.2083 25.4968 35.2083 24.2201 35.2083 21.6667C35.2083 19.1132 35.2083 17.8365 34.4151 17.0432C33.6218 16.25 32.3451 16.25 29.7917 16.25Z" stroke="#1768AC" stroke-width="3.75"/>
<path id="Vector_3" d="M18.9583 46.0417H32.4999" stroke="#1768AC" stroke-width="3.75" stroke-linecap="round"/>
<path id="Vector_4" d="M46.0417 59.5833H5.41675" stroke="#1768AC" stroke-width="3.75" stroke-linecap="round"/>
<path id="Vector_5" d="M52.8124 10.8333L56.1521 13.505C56.5253 13.8037 56.7119 13.953 56.8817 14.1051C58.4829 15.5406 59.45 17.5523 59.5705 19.6995C59.5833 19.9271 59.5833 20.1661 59.5833 20.6441V50.1042C59.5833 52.3478 57.7643 54.1667 55.5208 54.1667C53.2772 54.1667 51.4583 52.3478 51.4583 50.1042V49.9108C51.4583 47.7739 49.726 46.0417 47.5891 46.0417H43.3333" stroke="#1768AC" stroke-width="3.75" stroke-linecap="round"/>
<path id="Vector_6" d="M59.5833 21.6667H55.5208C53.2772 21.6667 51.4583 23.4855 51.4583 25.7292V32.2803C51.4583 34.0288 52.5771 35.5813 54.2362 36.1343L59.5833 37.9167" stroke="#1768AC" stroke-width="3.75" stroke-linecap="round"/>
</g>
</svg>
