<svg width="389" height="389" viewBox="0 0 389 389" fill="none" xmlns="http://www.w3.org/2000/svg">
<g clip-path="url(#clip0_137_1742)">
<path d="M86.262 167.485L78.1426 160.148L179 48.6297L298.829 134.582L292.463 143.481L180.561 63.2033L86.262 167.485Z" fill="#03256C"/>
<path d="M183.718 89.8137C197.77 88.1816 207.839 75.4665 206.207 61.4139C204.575 47.3612 191.86 37.2924 177.807 38.9245C163.755 40.5566 153.686 53.2716 155.318 67.3243C156.95 81.3769 169.665 91.4458 183.718 89.8137Z" fill="#03256C"/>
<path d="M361.643 120.989L13.9795 161.367L38.2496 370.335L385.913 329.956L361.643 120.989Z" fill="#297373"/>
<path d="M73.993 223.965C79.1626 222.495 86.9649 220.939 95.689 219.926C106.467 218.674 114.204 219.405 119.84 222.901C124.554 225.844 127.511 230.643 128.286 237.314C129.364 246.592 123.539 253.699 117.532 256.687L117.57 257.013C122.881 258.466 126.248 262.997 128.859 269.455C132.07 277.384 135.432 286.606 137.159 289.246L120.351 291.198C118.93 289.293 116.513 283.562 113.312 274.861C110.327 266.035 106.91 263.922 100.217 264.6L95.2628 265.175L98.5789 293.727L82.3148 295.616L73.993 223.965ZM93.8861 253.322L100.361 252.57C108.542 251.62 112.912 246.961 112.174 240.606C111.399 233.935 106.491 231.113 98.9384 231.881C94.9511 232.344 92.7279 232.921 91.558 233.277L93.8861 253.322Z" fill="white"/>
<path d="M185.873 252.471L159.146 255.576L161.149 272.817L190.993 269.351L192.558 282.823L146.221 288.205L137.787 215.587L182.614 210.38L184.177 223.842L155.843 227.132L157.595 242.223L184.322 239.119L185.873 252.471Z" fill="white"/>
<path d="M203.792 281.518L195.358 208.9L214.544 206.672L232.725 231.526C237.916 238.675 243.291 247.223 247.469 255.04L247.795 255.002C245.595 245.535 244.141 235.772 242.877 224.886L240.413 203.668L255.493 201.916L263.928 274.545L246.697 276.546L227.917 250.33C222.714 243.072 216.878 234.259 212.326 226.155L212.023 226.3C213.572 235.843 214.978 246.052 216.355 257.905L218.896 279.786L203.794 281.54L203.792 281.518Z" fill="white"/>
<path d="M285.341 212.422L265.829 214.689L264.226 200.891L320.048 194.407L321.65 208.205L301.833 210.507L308.666 269.338L292.174 271.253L285.341 212.422Z" fill="white"/>
</g>
<defs>
<clipPath id="clip0_137_1742">
<rect width="350" height="350" fill="white" transform="translate(0 40.9999) rotate(-6.62482)"/>
</clipPath>
</defs>
</svg>
