<svg width="70" height="70" viewBox="0 0 70 70" fill="none" xmlns="http://www.w3.org/2000/svg">
<g id="school-flag_svgrepo.com">
<path id="Vector" d="M17.5 45.2089H20.4167M17.5 53.9589H20.4167M49.5833 53.9589H52.5M49.5833 45.2089H52.5M29.1667 64.1673V52.5006C29.1667 49.2788 31.7783 46.6673 35 46.6673C38.2218 46.6673 40.8333 49.2788 40.8333 52.5006V64.1673M35 14.5833H49.1167C49.28 14.5833 49.3617 14.5833 49.4241 14.5516C49.4789 14.5236 49.5235 14.479 49.5515 14.4241C49.5833 14.3617 49.5833 14.28 49.5833 14.1167V6.30001C49.5833 6.13665 49.5833 6.05498 49.5515 5.99259C49.5235 5.9377 49.4789 5.89311 49.4241 5.86514C49.3617 5.83334 49.28 5.83334 49.1167 5.83334H35.4667C35.3033 5.83334 35.2217 5.83334 35.1593 5.86514C35.1044 5.89311 35.0598 5.9377 35.0318 5.99259C35 6.05498 35 6.13665 35 6.30001V14.5833ZM35 14.5833V22.4319M35 22.4319C35.5679 22.4319 36.136 22.5148 36.6855 22.6807C37.9333 23.0573 39.037 24.0504 41.2437 26.0365L49.5833 33.5423L54.1803 34.6914C56.7082 35.3235 57.972 35.6393 58.9132 36.344C59.7432 36.9658 60.3928 37.7977 60.7947 38.7541C61.25 39.8379 61.25 41.1405 61.25 43.7462V54.8339C61.25 58.1009 61.25 59.7345 60.6142 60.9823C60.055 62.0798 59.1625 62.9723 58.065 63.5314C56.8173 64.1673 55.1836 64.1673 51.9167 64.1673H18.0833C14.8164 64.1673 13.1829 64.1673 11.9351 63.5314C10.8374 62.9723 9.94505 62.0798 9.3858 60.9823C8.75 59.7345 8.75 58.1009 8.75 54.8339V43.7462C8.75 41.1405 8.75 39.8379 9.20538 38.7541C9.60715 37.7977 10.2567 36.9658 11.0869 36.344C12.028 35.6393 13.2919 35.3235 15.8197 34.6914L20.4167 33.5423L28.7563 26.0365C30.963 24.0504 32.0667 23.0573 33.3145 22.6807C33.864 22.5148 34.4321 22.4319 35 22.4319ZM35.0875 35.7292H35.1094M35.0875 37.9167C33.8794 37.9167 32.9 36.9373 32.9 35.7292C32.9 34.5211 33.8794 33.5417 35.0875 33.5417C36.2956 33.5417 37.275 34.5211 37.275 35.7292C37.275 36.9373 36.2956 37.9167 35.0875 37.9167Z" stroke="#1768AC" stroke-width="3" stroke-linecap="round" stroke-linejoin="round"/>
</g>
</svg>
