<svg width="60" height="60" viewBox="0 0 60 60" fill="none" xmlns="http://www.w3.org/2000/svg">
<g id="police-security-policeman_svgrepo.com">
<path id="Vector" d="M10 52.5V48.75C10 41.156 16.1561 35 23.75 35H36.25C43.844 35 50 41.156 50 48.75V52.5M20 52.5V46.25M40 52.5V45.8332M21.25 16.25C26.285 20.5658 33.715 20.5658 38.75 16.25M40 17.5V12.3189L43.6643 6.95512C44.2313 6.12545 43.637 5 42.6323 5H17.3678C16.363 5 15.7689 6.12545 16.3357 6.95512L20 12.3189V17.5M40 20C40 25.5227 35.5228 30 30 30C24.4771 30 20 25.5227 20 20V13.75H40V20Z" stroke="#1768AC" stroke-width="3.5" stroke-linecap="round" stroke-linejoin="round"/>
</g>
</svg>
