<svg width="60" height="60" viewBox="0 0 60 60" fill="none" xmlns="http://www.w3.org/2000/svg">
<g id="tv_svgrepo.com">
<path id="Vector" d="M37.5 17.5V52.5M45 27.5H45.025M45 35H45.025M45 42.5H45.025M42.5 7.5L30 17.5L17.5 7.5M19.5 52.5H40.5C44.7005 52.5 46.8005 52.5 48.405 51.6825C49.8162 50.9635 50.9635 49.8162 51.6825 48.405C52.5 46.8005 52.5 44.7005 52.5 40.5V29.5C52.5 25.2995 52.5 23.1994 51.6825 21.5951C50.9635 20.1839 49.8162 19.0365 48.405 18.3175C46.8005 17.5 44.7005 17.5 40.5 17.5H19.5C15.2996 17.5 13.1994 17.5 11.5951 18.3175C10.1839 19.0365 9.0365 20.1839 8.31745 21.5951C7.5 23.1994 7.5 25.2995 7.5 29.5V40.5C7.5 44.7005 7.5 46.8005 8.31745 48.405C9.0365 49.8162 10.1839 50.9635 11.5951 51.6825C13.1994 52.5 15.2996 52.5 19.5 52.5Z" stroke="#1768AC" stroke-width="5" stroke-linecap="round" stroke-linejoin="round"/>
</g>
</svg>
