<svg width="30" height="31" viewBox="0 0 30 31" fill="none" xmlns="http://www.w3.org/2000/svg">
<g id="twitter-154_svgrepo.com">
<g id="Page-1">
<g id="Dribbble-Light-Preview">
<g id="icons">
<path id="twitter-[#154]" fill-rule="evenodd" clip-rule="evenodd" d="M9.435 27.4997C20.7555 27.4997 26.9475 18.265 26.9475 10.2577C26.9475 9.99487 26.9475 9.73398 26.9295 9.47406C28.134 8.6175 29.1735 7.55398 30 6.33709C28.878 6.8274 27.6855 7.14894 26.466 7.29071C27.75 6.5331 28.7115 5.34286 29.172 3.93841C27.963 4.64433 26.6415 5.14253 25.263 5.40985C22.932 2.97014 19.0335 2.85194 16.554 5.14691C14.9565 6.62667 14.277 8.83298 14.7735 10.9374C9.825 10.6923 5.214 8.39145 2.088 4.60638C0.4545 7.3754 1.29 10.9164 3.9945 12.6945C3.015 12.6665 2.0565 12.4068 1.2 11.9372V12.0141C1.2015 14.8983 3.267 17.3818 6.138 17.9533C5.232 18.197 4.281 18.2323 3.36 18.0566C4.1655 20.5258 6.477 22.2171 9.1095 22.2658C6.93 23.9523 4.2375 24.8681 1.4655 24.8652C0.9765 24.8637 0.4875 24.8356 0 24.778C2.8155 26.5561 6.09 27.4997 9.435 27.4953" fill="#353535"/>
</g>
</g>
</g>
</g>
</svg>
