<svg width="55" height="55" viewBox="0 0 55 55" fill="none" xmlns="http://www.w3.org/2000/svg">
<g id="water-tap-plumber_svgrepo.com" clip-path="url(#clip0_347_10849)">
<g id="Group">
<g id="Group_2">
<path id="Vector" d="M52.611 3.58692C51.6205 3.58692 50.8175 4.3899 50.8175 5.38044V10.7609H39.7482C39.2069 9.23474 37.9958 8.02366 36.4697 7.48236V3.58692H41.8501C42.8405 3.58692 43.6436 2.78395 43.6436 1.79341C43.6436 0.802871 42.8405 0 41.8501 0C41.0118 0 20.8773 0 20.3283 0C19.3379 0 18.5348 0.802978 18.5348 1.79352C18.5348 2.78405 19.3378 3.58703 20.3283 3.58703H25.7088V7.48247C24.1826 8.02377 22.9716 9.23484 22.4303 10.761H9.56745C6.60067 10.761 4.18701 13.1746 4.18701 16.1414V26.9023C4.18701 27.8927 4.98988 28.6958 5.98053 28.6958H13.1545C14.1449 28.6958 14.948 27.8928 14.948 26.9023V21.5219H22.4304C23.1707 23.6094 25.1642 25.1088 27.5023 25.1088H34.6762C37.0144 25.1088 39.0078 23.6093 39.7482 21.5219H50.8176V26.9023C50.8176 27.8927 51.6205 28.6958 52.6111 28.6958C53.6016 28.6958 54.4046 27.8928 54.4046 26.9023C54.4046 26.064 54.4046 5.92947 54.4046 5.38055C54.4044 4.39001 53.6014 3.58692 52.611 3.58692ZM22.1218 17.9348H13.1545C12.1641 17.9348 11.361 18.7378 11.361 19.7283V25.1088H7.77394V16.1414C7.77394 15.1525 8.57853 14.3479 9.56745 14.3479H22.1218V17.9348ZM29.2957 3.58692H32.8826V7.17385H29.2957V3.58692ZM36.4697 19.7282C36.4697 20.7172 35.6651 21.5218 34.6761 21.5218H27.5022C26.5133 21.5218 25.7087 20.7172 25.7087 19.7282V12.5544C25.7087 11.5655 26.5131 10.7609 27.5022 10.7609H34.6761C35.6651 10.7609 36.4697 11.5655 36.4697 12.5544V19.7282ZM50.8175 17.9348H40.0566V14.3479H50.8175V17.9348Z" fill="#1768AC"/>
</g>
</g>
<g id="Group_3">
<g id="Group_4">
<path id="Vector_2" d="M16.5821 40.4457L10.9697 33.4064C10.2524 32.5066 8.8826 32.5063 8.16502 33.4064L2.55266 40.4457C-2.09463 46.2742 2.0495 55 9.56731 55C17.0834 55 21.2305 46.276 16.5821 40.4457ZM9.56731 51.4131C5.05935 51.4131 2.56813 46.18 5.35712 42.6819L9.56731 37.4015L13.7775 42.6819C16.5642 46.1771 14.078 51.4131 9.56731 51.4131Z" fill="#1768AC"/>
</g>
</g>
</g>
<defs>
<clipPath id="clip0_347_10849">
<rect width="55" height="55" fill="white"/>
</clipPath>
</defs>
</svg>
