<svg width="80" height="60" viewBox="0 0 80 60" fill="none" xmlns="http://www.w3.org/2000/svg">
<g id="wifi-good_svgrepo.com">
<path id="Vector" d="M40.0008 42.5581C38.1598 42.5581 36.6674 44.1199 36.6674 46.0465C36.6674 47.9731 38.1598 49.5349 40.0008 49.5349V42.5581ZM40.0341 49.5349C41.8751 49.5349 43.3674 47.9731 43.3674 46.0465C43.3674 44.1199 41.8751 42.5581 40.0341 42.5581V49.5349ZM48.9691 35.7209C50.3311 37.0172 52.4391 36.9129 53.6778 35.4879C54.9168 34.0626 54.8168 31.8565 53.4551 30.5599L48.9691 35.7209ZM60.1804 22.815C61.5421 24.1113 63.6504 24.007 64.8891 22.5816C66.1281 21.1566 66.0281 18.9502 64.6664 17.6539L60.1804 22.815ZM26.5466 30.5599C25.1847 31.8565 25.085 34.0626 26.3237 35.4879C27.5625 36.9129 29.6707 37.0172 31.0325 35.7209L26.5466 30.5599ZM15.3353 17.6539C13.9734 18.9502 13.8737 21.1566 15.1124 22.5816C16.3512 24.007 18.4594 24.1113 19.8212 22.815L15.3353 17.6539ZM40.0008 49.5349H40.0341V42.5581H40.0008V49.5349ZM40.0008 32.093C43.4564 32.093 46.5984 33.4643 48.9691 35.7209L53.4551 30.5599C49.9051 27.1807 45.1794 25.1163 40.0008 25.1163V32.093ZM40.0008 14.6512C47.7738 14.6512 54.8494 17.7401 60.1804 22.815L64.6664 17.6539C58.1561 11.4565 49.4964 7.67442 40.0008 7.67442V14.6512ZM31.0325 35.7209C33.4031 33.4643 36.5451 32.093 40.0008 32.093V25.1163C34.8221 25.1163 30.0965 27.1807 26.5466 30.5599L31.0325 35.7209ZM19.8212 22.815C25.1523 17.7401 32.228 14.6512 40.0008 14.6512V7.67442C30.505 7.67442 21.8456 11.4565 15.3353 17.6539L19.8212 22.815Z" fill="#1768AC"/>
</g>
</svg>
